<svg width="95" height="25" viewBox="0 0 95 25" fill="none" xmlns="http://www.w3.org/2000/svg">
<path d="M8.79259 19.5156C2.92209 19.5156 0 15.6733 0 9.77135C0 3.67467 3.09022 0 9.12987 0C11.4615 0 13.3434 0.557072 14.7765 1.72642C16.1247 2.92388 16.8833 4.56599 17.0798 6.62565H14.7198C13.8771 6.62565 13.2593 6.2362 12.8936 5.4844C12.2474 4.12033 10.9834 3.42474 9.12886 3.42474C5.50487 3.42474 3.90354 5.95817 3.90354 9.77235C3.90354 13.4751 5.44815 16.0919 9.01643 16.0919C11.4605 16.0919 12.8653 14.7559 13.2866 12.6681H17.0788C16.7151 17.0374 13.6249 19.5156 8.79259 19.5156Z" fill="#51B496"/>
<path d="M22.6978 2.11637V19.2371H18.9614V0.306641H20.9C21.8835 0.306641 22.6978 1.14175 22.6978 2.11637Z" fill="#51B496"/>
<path d="M58.9361 23.1618C58.9361 24.3864 58.3183 24.9996 57.0826 24.9996H55.2007V10.9122C55.3972 6.51388 57.7004 4.3418 62.1671 4.3418C66.7746 4.3418 69.0778 6.81901 69.0778 11.7744C69.0778 16.7851 67.1109 19.3747 63.1506 19.5132C61.2971 19.5132 59.8922 18.7614 58.9371 17.2307V23.1618H58.9361ZM62.1104 16.2019C64.1331 16.2019 65.1723 14.7816 65.2563 11.9421C65.2563 8.96299 64.1888 7.4875 62.0537 7.4875C59.9186 7.4875 58.9077 8.96299 58.9351 11.9421C59.0485 14.7826 60.0877 16.2019 62.1104 16.2019Z" fill="#51B496"/>
<path d="M77.4491 19.5709C72.954 19.4314 70.7075 16.8428 70.7075 11.8322C70.7075 6.82151 72.9834 4.31519 77.5058 4.28809C82.2257 4.28809 84.4449 7.15575 84.1633 12.9182H74.5564C74.6972 15.1736 75.6796 16.3148 77.5058 16.3148C78.3769 16.3148 79.1912 15.9525 79.9215 15.2569C80.2587 14.8945 80.6801 14.7279 81.1855 14.7279H83.9384C83.1231 17.8445 81.1014 19.5709 77.4491 19.5709ZM74.6121 10.2723H80.202C79.9772 8.3231 79.0504 7.32137 77.4491 7.32137C75.8478 7.32137 74.8926 8.3241 74.6121 10.2723Z" fill="#51B496"/>
<path d="M85.9043 11.6363C86.0167 6.87557 88.5732 4.50977 93.5453 4.50977H94.079V8.35206H92.815C90.7366 8.35206 89.6964 9.4381 89.6964 11.5811V19.2365H85.9043V11.6363V11.6363Z" fill="#51B496"/>
<path d="M37.6276 11.9646H38.2049C38.211 6.82854 35.9351 4.28809 31.435 4.28809C26.9399 4.28809 24.6924 6.82151 24.6924 11.9436C24.6924 17.0104 26.9399 19.5719 31.435 19.5719C33.8354 19.5719 35.6018 18.8412 36.7281 17.3888V12.857C36.7271 12.3641 37.1302 11.9646 37.6276 11.9646ZM31.4066 16.2586C29.4964 16.2586 28.5129 14.8112 28.4845 11.9436C28.4845 9.02069 29.468 7.5452 31.4339 7.5452C33.3442 7.5452 34.2993 8.96448 34.2993 11.8321C34.272 14.755 33.3168 16.2586 31.4066 16.2586Z" fill="#51B496"/>
<path d="M37.7906 15.1836C38.0549 15.1836 38.2686 15.3954 38.2686 15.6574C38.2686 15.9193 38.0549 16.1311 37.7906 16.1311C37.5262 16.1311 37.3125 15.9193 37.3125 15.6574C37.3125 15.3964 37.5262 15.1836 37.7906 15.1836Z" fill="#51B496"/>
<path d="M46.6317 4.28711C42.1306 4.28711 39.8831 6.82756 39.8892 11.9637H40.3541C40.8514 11.9637 41.2545 12.3632 41.2545 12.856V17.2513C42.3666 18.7931 44.1584 19.571 46.6317 19.571C51.1268 19.571 53.4017 17.0094 53.4017 11.9426C53.4017 6.82053 51.1268 4.28711 46.6317 4.28711ZM46.6034 16.2586C44.6931 16.2586 43.7097 14.8113 43.6823 11.9436C43.6823 9.02072 44.6658 7.54523 46.6317 7.54523C48.542 7.54523 49.4971 8.96451 49.4971 11.8322C49.4698 14.755 48.5146 16.2586 46.6034 16.2586Z" fill="#51B496"/>
</svg>
